# xmcd
#
# Track frame offsets: 
#        150
#        17134
#        39340
#        56929
#        70283
#        110873
#        121940
#        138197
#        169754
#        182218
#        193482
#
# Disc length: 2787 seconds
#
# Revision: 0
# Processed by: cddbd v1.5.2PL0 Copyright (c) Steve Scherf et al.
# Submitted via: ExactAudioCopy v0.95b4
#
DISCID=a70ae10b
DTITLE=Fleetwood Mac - Then Play On
DYEAR=1969
DGENRE=Blues
TTITLE0=Coming Your Way
TTITLE1=Closing My Eyes
TTITLE2=Show-Biz Blues
TTITLE3=Underway
TTITLE4=Oh Well
TTITLE5=Although The Sun Is Shining
TTITLE6=Rattlesnake Shake
TTITLE7=Searching For Madge
TTITLE8=Fighting For Madge
TTITLE9=Like Crying
TTITLE10=Before The Beginning
EXTD=
EXTT0=
EXTT1=
EXTT2=
EXTT3=
EXTT4=
EXTT5=
EXTT6=
EXTT7=
EXTT8=
EXTT9=
EXTT10=
PLAYORDER=
